# MineSkate 3 quarter_pipe, generated by blocks/generate.py
mtllib mineskate3:models/block/ramp.mtl
o quarter_pipe
v 1.000000 0.000000 1.000000
v 1.000000 0.019215 0.829296
v 0.000000 0.019215 0.829296
v 0.000000 0.000000 1.000000
v 0.000000 0.000000 1.000000
v 0.000000 0.019215 0.829296
v 0.000000 0.000000 0.829296
v 0.000000 0.000000 1.000000
v 1.000000 0.000000 1.000000
v 1.000000 0.000000 0.829296
v 1.000000 0.019215 0.829296
v 1.000000 0.000000 1.000000
v 1.000000 0.019215 0.829296
v 1.000000 0.076120 0.665152
v 0.000000 0.076120 0.665152
v 0.000000 0.019215 0.829296
v 0.000000 0.019215 0.829296
v 0.000000 0.076120 0.665152
v 0.000000 0.000000 0.665152
v 0.000000 0.000000 0.829296
v 1.000000 0.000000 0.829296
v 1.000000 0.000000 0.665152
v 1.000000 0.076120 0.665152
v 1.000000 0.019215 0.829296
v 1.000000 0.076120 0.665152
v 1.000000 0.168530 0.513876
v 0.000000 0.168530 0.513876
v 0.000000 0.076120 0.665152
v 0.000000 0.076120 0.665152
v 0.000000 0.168530 0.513876
v 0.000000 0.000000 0.513876
v 0.000000 0.000000 0.665152
v 1.000000 0.000000 0.665152
v 1.000000 0.000000 0.513876
v 1.000000 0.168530 0.513876
v 1.000000 0.076120 0.665152
v 1.000000 0.168530 0.513876
v 1.000000 0.292893 0.381282
v 0.000000 0.292893 0.381282
v 0.000000 0.168530 0.513876
v 0.000000 0.168530 0.513876
v 0.000000 0.292893 0.381282
v 0.000000 0.000000 0.381282
v 0.000000 0.000000 0.513876
v 1.000000 0.000000 0.513876
v 1.000000 0.000000 0.381282
v 1.000000 0.292893 0.381282
v 1.000000 0.168530 0.513876
v 1.000000 0.292893 0.381282
v 1.000000 0.444430 0.272464
v 0.000000 0.444430 0.272464
v 0.000000 0.292893 0.381282
v 0.000000 0.292893 0.381282
v 0.000000 0.444430 0.272464
v 0.000000 0.000000 0.272464
v 0.000000 0.000000 0.381282
v 1.000000 0.000000 0.381282
v 1.000000 0.000000 0.272464
v 1.000000 0.444430 0.272464
v 1.000000 0.292893 0.381282
v 1.000000 0.444430 0.272464
v 1.000000 0.617317 0.191605
v 0.000000 0.617317 0.191605
v 0.000000 0.444430 0.272464
v 0.000000 0.444430 0.272464
v 0.000000 0.617317 0.191605
v 0.000000 0.000000 0.191605
v 0.000000 0.000000 0.272464
v 1.000000 0.000000 0.272464
v 1.000000 0.000000 0.191605
v 1.000000 0.617317 0.191605
v 1.000000 0.444430 0.272464
v 1.000000 0.617317 0.191605
v 1.000000 0.804910 0.141813
v 0.000000 0.804910 0.141813
v 0.000000 0.617317 0.191605
v 0.000000 0.617317 0.191605
v 0.000000 0.804910 0.141813
v 0.000000 0.000000 0.141813
v 0.000000 0.000000 0.191605
v 1.000000 0.000000 0.191605
v 1.000000 0.000000 0.141813
v 1.000000 0.804910 0.141813
v 1.000000 0.617317 0.191605
v 1.000000 0.804910 0.141813
v 1.000000 1.000000 0.125000
v 0.000000 1.000000 0.125000
v 0.000000 0.804910 0.141813
v 0.000000 0.804910 0.141813
v 0.000000 1.000000 0.125000
v 0.000000 0.000000 0.125000
v 0.000000 0.000000 0.141813
v 1.000000 0.000000 0.141813
v 1.000000 0.000000 0.125000
v 1.000000 1.000000 0.125000
v 1.000000 0.804910 0.141813
v 1.000000 1.000000 0.125000
v 1.000000 1.000000 0.000000
v 0.000000 1.000000 0.000000
v 0.000000 1.000000 0.125000
v 0.000000 1.000000 0.125000
v 0.000000 1.000000 0.000000
v 0.000000 0.000000 0.000000
v 0.000000 0.000000 0.125000
v 1.000000 0.000000 0.125000
v 1.000000 0.000000 0.000000
v 1.000000 1.000000 0.000000
v 1.000000 1.000000 0.125000
v 0.000000 1.000000 0.000000
v 1.000000 1.000000 0.000000
v 1.000000 0.000000 0.000000
v 0.000000 0.000000 0.000000
v 0.000000 0.000000 1.000000
v 0.000000 0.000000 0.000000
v 1.000000 0.000000 0.000000
v 1.000000 0.000000 1.000000
vt 1.000000 0.000000
vt 1.000000 0.107573
vt 0.000000 0.107573
vt 0.000000 0.000000
vt 0.000000 0.000000
vt 0.170704 0.019215
vt 0.170704 0.000000
vt 0.000000 0.000000
vt 0.000000 0.000000
vt 0.170704 0.000000
vt 0.170704 0.019215
vt 0.000000 0.000000
vt 1.000000 0.107573
vt 1.000000 0.216364
vt 0.000000 0.216364
vt 0.000000 0.107573
vt 0.170704 0.019215
vt 0.334848 0.076120
vt 0.334848 0.000000
vt 0.170704 0.000000
vt 0.170704 0.000000
vt 0.334848 0.000000
vt 0.334848 0.076120
vt 0.170704 0.019215
vt 1.000000 0.216364
vt 1.000000 0.327373
vt 0.000000 0.327373
vt 0.000000 0.216364
vt 0.334848 0.076120
vt 0.486124 0.168530
vt 0.486124 0.000000
vt 0.334848 0.000000
vt 0.334848 0.000000
vt 0.486124 0.000000
vt 0.486124 0.168530
vt 0.334848 0.076120
vt 1.000000 0.327373
vt 1.000000 0.441212
vt 0.000000 0.441212
vt 0.000000 0.327373
vt 0.486124 0.168530
vt 0.618718 0.292893
vt 0.618718 0.000000
vt 0.486124 0.000000
vt 0.486124 0.000000
vt 0.618718 0.000000
vt 0.618718 0.292893
vt 0.486124 0.168530
vt 1.000000 0.441212
vt 1.000000 0.558039
vt 0.000000 0.558039
vt 0.000000 0.441212
vt 0.618718 0.292893
vt 0.727536 0.444430
vt 0.727536 0.000000
vt 0.618718 0.000000
vt 0.618718 0.000000
vt 0.727536 0.000000
vt 0.727536 0.444430
vt 0.618718 0.292893
vt 1.000000 0.558039
vt 1.000000 0.677560
vt 0.000000 0.677560
vt 0.000000 0.558039
vt 0.727536 0.444430
vt 0.808395 0.617317
vt 0.808395 0.000000
vt 0.727536 0.000000
vt 0.727536 0.000000
vt 0.808395 0.000000
vt 0.808395 0.617317
vt 0.727536 0.444430
vt 1.000000 0.677560
vt 1.000000 0.799101
vt 0.000000 0.799101
vt 0.000000 0.677560
vt 0.808395 0.617317
vt 0.858187 0.804910
vt 0.858187 0.000000
vt 0.808395 0.000000
vt 0.808395 0.000000
vt 0.858187 0.000000
vt 0.858187 0.804910
vt 0.808395 0.617317
vt 1.000000 0.799101
vt 1.000000 0.921723
vt 0.000000 0.921723
vt 0.000000 0.799101
vt 0.858187 0.804910
vt 0.875000 1.000000
vt 0.875000 0.000000
vt 0.858187 0.000000
vt 0.858187 0.000000
vt 0.875000 0.000000
vt 0.875000 1.000000
vt 0.858187 0.804910
vt 1.000000 0.921723
vt 1.000000 1.000000
vt 0.000000 1.000000
vt 0.000000 0.921723
vt 0.875000 1.000000
vt 1.000000 1.000000
vt 1.000000 0.000000
vt 0.875000 0.000000
vt 0.875000 0.000000
vt 1.000000 0.000000
vt 1.000000 1.000000
vt 0.875000 1.000000
vt 0.000000 1.000000
vt 1.000000 1.000000
vt 1.000000 0.000000
vt 0.000000 0.000000
vt 0.000000 0.000000
vt 0.000000 1.000000
vt 1.000000 1.000000
vt 1.000000 0.000000
usemtl surface
f 1/1 2/2 3/3 4/4
f 13/13 14/14 15/15 16/16
f 25/25 26/26 27/27 28/28
f 37/37 38/38 39/39 40/40
f 49/49 50/50 51/51 52/52
f 61/61 62/62 63/63 64/64
f 73/73 74/74 75/75 76/76
f 85/85 86/86 87/87 88/88
f 97/97 98/98 99/99 100/100
usemtl side
f 5/5 6/6 7/7 8/8
f 9/9 10/10 11/11 12/12
f 17/17 18/18 19/19 20/20
f 21/21 22/22 23/23 24/24
f 29/29 30/30 31/31 32/32
f 33/33 34/34 35/35 36/36
f 41/41 42/42 43/43 44/44
f 45/45 46/46 47/47 48/48
f 53/53 54/54 55/55 56/56
f 57/57 58/58 59/59 60/60
f 65/65 66/66 67/67 68/68
f 69/69 70/70 71/71 72/72
f 77/77 78/78 79/79 80/80
f 81/81 82/82 83/83 84/84
f 89/89 90/90 91/91 92/92
f 93/93 94/94 95/95 96/96
f 101/101 102/102 103/103 104/104
f 105/105 106/106 107/107 108/108
f 109/109 110/110 111/111 112/112
f 113/113 114/114 115/115 116/116
